# xmcd
#
# Track frame offsets:
#	150
#	16647
#	34082
#	51240
#	69271
#	88762
#	106354
#	123080
#	138778
#	154872
#	170743
#	189224
#	205329
#	221724
#	234834
#	250509
#	264818
#	281183
#	293898
#
# Disc length: 4123 seconds
#
# Revision: 0
# Processed by: cddbd v1.5.2PL0 Copyright (c) Steve Scherf et al.
# Submitted via: audiograbber 1.83.01
#
DISCID=03101913
DTITLE=Various Artist - Hott Country 128
DYEAR=2006
DGENRE=Country
TTITLE0=Trace Adkins - Ladies Love Country Boys
TTITLE1=Carolyn Dawn Johnson - Taking Back My Brave
TTITLE2=Jason McCoy - I'm Not Running Anymore
TTITLE3=Chris Cummings - Dixie Beauxderaunt
TTITLE4=Faith Hill - Stealing Kisses
TTITLE5=Jake Owen - Startin' With Me
TTITLE6=Kellie Pickler - Red High Heels
TTITLE7=Wreckers - My Oh My
TTITLE8=Billy Curlington - Good Directions
TTITLE9=Lisa Hewitt - Somebody
TTITLE10=Pat Greene - Dixie Lullaby
TTITLE11=Charlie Major 7 Kim Mitchell - Young At Heart
TTITLE12=Kenny Rogers - The Last Ten Years ( Superman )
TTITLE13=George Strait - It Just Comes Natural
TTITLE14=Trent Wilman - So AM I
TTITLE15=Jessica Robinson - Little Dirt Road
TTITLE16=Lee Ann Womack - Finding My Back Home
TTITLE17=Prairie Oyster - TOO BAD FOR ME
TTITLE18=Marshall Tucker Band - Heard It In A Love Song
EXTD=Oct 2006
EXTT0=
EXTT1=
EXTT2=
EXTT3=
EXTT4=
EXTT5=
EXTT6=
EXTT7=
EXTT8=
EXTT9=
EXTT10=
EXTT11=
EXTT12=
EXTT13=
EXTT14=
EXTT15=
EXTT16=
EXTT17=
EXTT18=
PLAYORDER=
